<svg width="21" height="20" viewBox="0 0 21 20" fill="none" xmlns="http://www.w3.org/2000/svg">
<path d="M13.5422 7.34339L15.6244 9.36782H5.13408C5.09428 9.36719 5.05475 9.37441 5.01775 9.38908C4.98075 9.40375 4.94701 9.42557 4.91846 9.45329C4.8899 9.48102 4.86709 9.5141 4.85134 9.55065C4.83559 9.5872 4.8272 9.6265 4.82666 9.6663C4.82666 9.83133 4.96369 9.96538 5.13408 9.96538H15.6244L13.5422 11.9892C13.5137 12.0166 13.491 12.0494 13.4755 12.0857C13.46 12.1221 13.452 12.1612 13.452 12.2007C13.452 12.2402 13.46 12.2793 13.4755 12.3157C13.491 12.352 13.5137 12.3848 13.5422 12.4122C13.6005 12.4686 13.6785 12.5002 13.7596 12.5002C13.8408 12.5002 13.9188 12.4686 13.9771 12.4122L16.5836 9.8778C16.6404 9.82193 16.6729 9.74596 16.6741 9.6663C16.6741 9.62677 16.666 9.58766 16.6504 9.55132C16.6349 9.51497 16.6121 9.48215 16.5836 9.4548L13.9771 6.92099C13.9186 6.86485 13.8407 6.8335 13.7596 6.8335C13.6786 6.8335 13.6006 6.86485 13.5422 6.92099C13.5138 6.94834 13.4912 6.98114 13.4757 7.01743C13.4603 7.05372 13.4523 7.09275 13.4523 7.13219C13.4523 7.17163 13.4603 7.21066 13.4757 7.24695C13.4912 7.28324 13.5138 7.31605 13.5422 7.34339Z" fill="black"/>
</svg>
