<svg width="46" height="46" viewBox="0 0 46 46" fill="none" xmlns="http://www.w3.org/2000/svg">
<path d="M0 0H46V46H0V0Z" fill="white"/>
<path d="M16.6676 26.372L14.8571 24.5616L23.1671 16.1429L31.4138 24.462L29.8025 26.2L24.6155 20.9406L24.4526 21.0311L24.4526 29.8572L21.9089 29.8572L21.9089 20.8863L16.6676 26.372Z" fill="black"/>
<path d="M0 0V-1H-1V0H0ZM46 0H47V-1H46V0ZM46 46V47H47V46H46ZM0 46H-1V47H0V46ZM0 1H46V-1H0V1ZM45 0V46H47V0H45ZM46 45H0V47H46V45ZM1 46V0H-1V46H1Z" fill="black"/>
</svg>
