<svg width="46" height="46" viewBox="0 0 46 46" fill="none" xmlns="http://www.w3.org/2000/svg">
<path d="M0 0H46V46H0V0Z" fill="white"/>
<path d="M16.1426 18.1462L27.8535 29.8572L29.8565 27.8542L18.1456 16.1432L16.1426 18.1462Z" fill="black"/>
<path d="M16.1572 27.8442L18.1602 29.8472L29.8711 18.1362L27.8681 16.1332L16.1572 27.8442Z" fill="black"/>
<path d="M0 0V-1H-1V0H0ZM46 0H47V-1H46V0ZM46 46V47H47V46H46ZM0 46H-1V47H0V46ZM0 1H46V-1H0V1ZM45 0V46H47V0H45ZM46 45H0V47H46V45ZM1 46V0H-1V46H1Z" fill="black"/>
</svg>
