<svg width="304" height="26" viewBox="0 0 304 26" fill="none" xmlns="http://www.w3.org/2000/svg">
<g clip-path="url(#clip0_583_3878)">
<path d="M290.407 9.49334C290.327 7.83352 290.789 6.19341 291.722 4.82667C292.599 3.66223 294.046 3.08001 296.062 3.08001C297.785 3.08001 299.006 3.52445 299.725 4.41334C300.45 5.35102 300.829 6.51582 300.797 7.70667C300.829 8.60866 300.632 9.50382 300.225 10.3067C299.822 11.0232 299.264 11.6384 298.594 12.1067C297.891 12.6133 296.792 13.2933 295.306 14.1467L293.872 14.98C288.94 17.8867 286.476 21.4867 286.48 25.78H303.671V22.8733H290.393V22.8C290.711 21.6279 291.383 20.586 292.314 19.82C293.637 18.7535 295.047 17.8034 296.529 16.98C297.887 16.1932 299.204 15.3365 300.475 14.4133C301.488 13.6546 302.345 12.7037 303 11.6133C303.711 10.4278 304.072 9.06039 304.04 7.67334C304.077 6.24973 303.704 4.84593 302.968 3.63334C302.269 2.51072 301.273 1.60978 300.094 1.03334C298.864 0.431429 297.513 0.125704 296.148 0.140006C293.21 0.140006 290.988 1.00667 289.479 2.74C287.921 4.61057 287.113 7.00703 287.217 9.45334L290.407 9.49334Z" fill="black"/>
<path d="M224.491 8.43999C221.913 8.43999 219.947 9.21332 218.612 10.7667V10.6933L220.079 3.09332H231.094V0.179993H217.461L214.877 13.7133H218.323C219.546 12.1333 221.348 11.3467 223.742 11.3467C225.175 11.2775 226.582 11.7529 227.687 12.68C228.665 13.5689 229.156 14.92 229.161 16.7333C229.212 17.5644 229.097 18.3974 228.822 19.1822C228.547 19.967 228.119 20.6874 227.563 21.3C227.006 21.8466 226.344 22.2723 225.62 22.5508C224.895 22.8294 224.121 22.955 223.347 22.92C221.552 22.92 220.217 22.46 219.329 21.54C218.438 20.5963 217.883 19.379 217.751 18.08H214.521C214.566 19.4402 214.963 20.7646 215.672 21.92C216.428 23.1309 217.494 24.1104 218.757 24.7533C220.224 25.5004 221.85 25.8691 223.492 25.8267C225.07 25.8463 226.627 25.4512 228.01 24.68C229.358 23.9356 230.472 22.8222 231.226 21.4667C232.017 20.02 232.419 18.3874 232.39 16.7333C232.409 15.2655 232.063 13.8164 231.383 12.52C230.735 11.2799 229.761 10.2461 228.569 9.53332C227.322 8.7971 225.901 8.42126 224.458 8.44665" fill="black"/>
<path d="M9.93689 8.43999C7.35018 8.43999 5.39041 9.21555 4.0576 10.7667V10.6933L5.52416 3.09332H16.5396V0.179993H2.90673L0.322218 13.7133H3.78799C5.00681 12.1311 6.81312 11.3422 9.20692 11.3467C10.6401 11.2775 12.0472 11.7529 13.1528 12.68C14.1348 13.5689 14.6259 14.92 14.6259 16.7333C14.6771 17.5644 14.5619 18.3974 14.2873 19.1822C14.0126 19.967 13.5842 20.6874 13.0278 21.3C12.4709 21.8466 11.8098 22.2723 11.0849 22.5508C10.3601 22.8294 9.58677 22.955 8.81235 22.92C7.017 22.92 5.682 22.46 4.79419 21.54C3.90365 20.5963 3.34833 19.379 3.21584 18.08H-0.0131836C0.0282263 19.4407 0.425386 20.7659 1.13768 21.92C1.89286 23.1309 2.95913 24.1104 4.22201 24.7533C5.68925 25.5004 7.31563 25.8691 8.95702 25.8267C10.5354 25.8463 12.0919 25.4512 13.475 24.68C14.8229 23.9356 15.9372 22.8222 16.6908 21.4667C17.4824 20.02 17.8839 18.3874 17.8549 16.7333C17.8741 15.2655 17.5281 13.8164 16.8487 12.52C16.199 11.2811 15.2252 10.2477 14.034 9.53332C12.7876 8.7971 11.3661 8.42126 9.92376 8.44665" fill="black"/>
<path d="M75.4708 0.439992C75.3965 1.92742 74.8472 3.35004 73.9057 4.49333C73.0595 5.38222 71.6193 5.82666 69.585 5.82666V8.19333C70.6116 8.21852 71.6382 8.14036 72.6496 7.95999C73.4436 7.75014 74.1679 7.32893 74.7475 6.73999V25.54H77.9764V0.41333L75.4708 0.439992Z" fill="black"/>
<path d="M161.681 0L156.808 21.3133H156.735L150.994 0H147.403L141.662 21.3133H141.596L136.717 0H133.31L139.656 26H143.24L149.166 3.70667H149.238L155.157 26H158.741L165.094 0H161.681Z" fill="black"/>
</g>
<defs>
<clipPath id="clip0_583_3878">
<rect width="304" height="26" fill="white"/>
</clipPath>
</defs>
</svg>
