<svg height="28" viewBox="0 0 156 28" width="156" xmlns="http://www.w3.org/2000/svg"><title>Wordsearch</title><path d="m24.154 12.992c-.816.204-1.326.17-1.836.408-1.02.476-2.924 6.426-5.848 13.906-.102.238-.782.17-.85.034-1.054-2.958-2.04-5.916-2.856-8.33-.986 2.04-2.414 5.066-3.876 8.296-.102.238-.816.17-.884.034-2.584-6.834-5.066-13.634-5.78-13.94-.476-.238-.986-.204-1.836-.408-.272-.068-.136-.374 0-.374.884.102 1.53.136 3.196.136s2.958-.034 3.808-.136c.17 0 .238.306 0 .374-.68.204-1.734.102-1.87.442-.238.544 1.7 4.998 3.876 10.948 1.292-2.89 2.278-4.828 2.992-6.494-.918-2.584-1.598-4.318-1.972-4.488-.476-.238-.748-.204-1.598-.408-.272-.068-.136-.374 0-.374.884.102 1.53.136 3.196.136s3.162-.034 4.012-.136c.17 0 .238.306 0 .374-.68.204-2.142.102-2.278.442-.272.544 1.36 4.624 3.23 10.812 2.21-5.848 3.434-9.69 3.434-10.404 0-.408-.884-.612-2.38-.85-.238-.034-.17-.374 0-.374.85.102 2.006.136 3.638.136 1.666 0 1.632-.034 2.482-.136.17 0 .272.306 0 .374zm15.266 7.004c0 3.978-2.958 7.412-7.378 7.412-4.998 0-7.48-3.74-7.48-7.65 0-3.978 2.958-7.446 7.344-7.446 4.998 0 7.514 3.74 7.514 7.684zm-2.652.272c0-3.978-1.904-7.378-5.032-7.378-2.652 0-4.488 2.856-4.488 6.596 0 3.944 1.904 7.378 4.998 7.378 2.686 0 4.522-2.856 4.522-6.596zm15.878-6.392c0 .918-.544 1.598-1.428 1.598-1.054 0-1.394-1.326-2.312-1.326-1.02 0-1.36.442-2.482 1.768-.272.306-.34.476-.34.884l.068 3.06c.102 5.916.136 6.324.408 6.494.408.238 1.802.204 2.584.374.238.068.17.408.034.374-.986-.068-2.686-.102-4.25-.102-1.7 0-2.652.034-3.536.102-.17.034-.238-.306.034-.374.782-.17 1.462-.136 1.87-.374.272-.136.408-.578.408-6.494 0-4.08-.102-4.76-.408-5.066s-.714-.51-1.53-.646c-.238-.068-.17-.272-.034-.306 1.632-.306 3.094-1.36 4.182-2.108.204-.136.408.102.374.238-.136.442-.306 2.108-.306 3.332 0 .102.272.17.272.136.918-1.666 2.686-3.298 4.046-3.298 1.428 0 2.346.578 2.346 1.734zm17.272 12.478c-1.258.34-2.584.748-3.536 1.156-.102.068-.272 0-.306-.17-.272-.68-.408-1.36-.476-2.108 0-.102-.238-.17-.272-.136-1.088 1.292-2.822 2.312-4.726 2.312-4.08 0-6.494-3.298-6.494-7.378 0-3.978 3.196-7.412 7.548-7.412 1.462 0 2.584.204 3.604.646.136.034.306 0 .306-.136-.034-9.452-.136-9.928-.476-10.132-.306-.204-.85-.34-1.666-.442-.272-.034-.204-.272-.034-.306 1.632-.272 3.502-.884 4.59-1.666.204-.136.408.102.374.272-.204.714-.272 2.04-.272 2.414l-.068 16.932c-.034 4.454.102 5.032.306 5.304.306.34.68.544 1.564.544.306 0 .204.272.034.306zm-4.352-6.29c.068-4.182-.442-4.93-1.292-5.746-.816-.782-1.734-1.088-3.094-1.088-2.652 0-4.386 2.38-4.386 6.528 0 3.91 1.972 6.222 4.964 6.222 1.496 0 2.414-.374 3.366-1.326.272-.306.374-.476.374-.85zm15.64 2.822c0 2.55-2.176 4.522-5.406 4.522-1.088 0-2.924-.51-3.57-.884-.306-.204-.646-2.006-.714-3.468 0-.272.374-.238.408-.068.374 1.632 2.482 3.74 4.216 3.74s2.822-1.054 2.822-2.788c0-3.502-6.936-3.298-6.936-7.276 0-2.482 2.04-4.352 4.93-4.352.884 0 2.482.238 2.958.544.306.17.408 1.904.408 3.128 0 .272-.374.238-.408.068-.204-1.292-1.904-3.06-3.4-3.06s-2.312.918-2.312 2.312c0 3.57 7.004 3.06 7.004 7.582zm14.824-5.236c-.238.544-2.516.238-5.542.238-2.346 0-3.638 0-4.488.034-.102.578-.102.884-.102 1.598 0 3.604 1.904 6.426 5.644 6.426 1.564 0 3.026-.612 3.808-1.598.068-.136.408-.034.306.204-.68 1.7-3.06 2.89-5.066 2.89-4.964 0-7.378-3.74-7.378-7.65 0-3.978 2.856-7.446 7.242-7.446 4.624 0 6.052 4.284 5.576 5.304zm-2.788-.34c.238-1.02-.102-4.386-2.958-4.386-2.278 0-3.536 1.938-4.216 4.488l4.42-.068c.238 0 2.72.034 2.754-.034zm17.952 8.466c-.374.782-1.7 1.632-2.89 1.632-1.054 0-1.666-.918-2.04-1.87-.068-.102-.204-.136-.306-.034-1.02.884-2.584 1.938-4.488 1.938-1.7 0-3.196-1.292-3.196-2.754 0-2.958 2.992-3.91 7.82-5.576.306-.102.34-.238.374-.748v-1.768c0-2.55-.85-3.502-2.584-3.502-1.394 0-2.244 1.02-2.346 2.55-.102 1.564-.646 2.04-1.598 2.04-.68 0-1.122-.442-1.088-1.122.068-1.734 3.162-4.216 5.814-4.216 2.72 0 4.25 1.394 4.25 4.25 0 2.618-.306 5.338-.306 7.922 0 .918.408 1.53 1.122 1.53.578 0 .816-.102 1.224-.442.136-.102.306.068.238.17zm-4.828-5.848c0-.136-.102-.238-.272-.204-3.536 1.02-5.338 2.21-5.338 4.114 0 1.598.782 2.21 2.21 2.21 1.598 0 3.162-1.36 3.196-1.734.136-1.054.204-3.57.204-4.386zm17.068-6.052c0 .918-.544 1.598-1.428 1.598-1.054 0-1.394-1.326-2.312-1.326-1.02 0-1.36.442-2.482 1.768-.272.306-.34.476-.34.884l.068 3.06c.102 5.916.136 6.324.408 6.494.408.238 1.802.204 2.584.374.238.068.17.408.034.374-.986-.068-2.686-.102-4.25-.102-1.7 0-2.652.034-3.536.102-.17.034-.238-.306.034-.374.782-.17 1.462-.136 1.87-.374.272-.136.408-.578.408-6.494 0-4.08-.102-4.76-.408-5.066s-.714-.51-1.53-.646c-.238-.068-.17-.272-.034-.306 1.632-.306 3.094-1.36 4.182-2.108.204-.136.408.102.374.238-.136.442-.306 2.108-.306 3.332 0 .102.272.17.272.136.918-1.666 2.686-3.298 4.046-3.298 1.428 0 2.346.578 2.346 1.734zm14.382 10.37c-.51 1.802-3.196 3.162-5.304 3.162-4.998 0-7.616-3.74-7.616-7.65 0-3.978 3.06-7.446 7.616-7.446 2.822 0 4.896 1.122 4.896 2.448 0 .782-.782 1.496-1.598 1.496-2.074 0-1.122-3.196-4.148-3.196-2.278 0-4.08 2.38-4.08 6.426 0 3.604 2.142 6.426 5.848 6.426 1.564 0 3.332-.748 4.046-1.87.102-.136.408-.034.34.204zm17.782 2.856c-.884-.068-1.87-.102-3.536-.102-1.598 0-2.346.034-3.332.102-.17.034-.204-.306.034-.374.782-.17 1.224-.136 1.632-.374.374-.204.612-2.21.442-9.282-.068-2.278-1.53-3.094-3.468-3.094-1.53 0-2.686.714-3.57 1.7-.272.306-.34.476-.34.884v3.298c0 5.882.136 6.324.442 6.494.408.238.85.204 1.632.374.238.068.204.408.034.374-.986-.068-1.734-.102-3.298-.102-1.7 0-2.686.034-3.57.102-.136.034-.204-.306.034-.374.782-.17 1.462-.136 1.87-.374.272-.136.442-.646.442-11.934 0-9.452-.102-11.22-.408-11.424s-.884-.34-1.666-.442c-.272-.034-.204-.272-.068-.306 1.632-.272 3.502-.884 4.624-1.666.204-.136.374.102.34.272-.204.714-.238 2.04-.238 2.414l-.204 11.73c0 .136.238.17.272.136 1.632-1.768 3.264-2.822 5.202-2.822 2.89 0 4.352 1.938 4.352 4.76 0 7.99.17 9.146.442 9.282.408.238 1.088.204 1.87.374.238.068.204.408.034.374z" fill="#000" fill-rule="evenodd"></path></svg>